<svg id="visual" viewBox="0 0 3840 2060" width="3840" height="2060" xmlns="http://www.w3.org/2000/svg" xmlns:xlink="http://www.w3.org/1999/xlink" version="1.1"><path d="M0 351L640 248L1280 331L1920 351L2560 248L3200 166L3840 351L3840 0L3200 0L2560 0L1920 0L1280 0L640 0L0 0Z" fill="#8e8bc5"></path><path d="M0 640L640 434L1280 537L1920 537L2560 516L3200 372L3840 495L3840 349L3200 164L2560 246L1920 349L1280 329L640 246L0 349Z" fill="#827bb4"></path><path d="M0 1072L640 907L1280 990L1920 846L2560 1134L3200 1155L3840 1010L3840 493L3200 370L2560 514L1920 535L1280 535L640 432L0 638Z" fill="#776ba3"></path><path d="M0 1319L640 1402L1280 1340L1920 1278L2560 1484L3200 1443L3840 1361L3840 1008L3200 1153L2560 1132L1920 844L1280 988L640 905L0 1070Z" fill="#6c5b93"></path><path d="M0 1484L640 1525L1280 1587L1920 1422L2560 1752L3200 1567L3840 1525L3840 1359L3200 1441L2560 1482L1920 1276L1280 1338L640 1400L0 1317Z" fill="#614b82"></path><path d="M0 2061L640 2061L1280 2061L1920 2061L2560 2061L3200 2061L3840 2061L3840 1523L3200 1565L2560 1750L1920 1420L1280 1585L640 1523L0 1482Z" fill="#563c72"></path></svg>