<svg id="visual" viewBox="0 0 3840 2160" width="3840" height="2160" xmlns="http://www.w3.org/2000/svg" xmlns:xlink="http://www.w3.org/1999/xlink" version="1.1"><path d="M0 152L295 152L295 195L591 195L591 174L886 174L886 347L1182 347L1182 347L1477 347L1477 282L1772 282L1772 239L2068 239L2068 347L2363 347L2363 217L2658 217L2658 174L2954 174L2954 325L3249 325L3249 325L3545 325L3545 303L3840 303L3840 174L3840 0L3840 0L3545 0L3545 0L3249 0L3249 0L2954 0L2954 0L2658 0L2658 0L2363 0L2363 0L2068 0L2068 0L1772 0L1772 0L1477 0L1477 0L1182 0L1182 0L886 0L886 0L591 0L591 0L295 0L295 0L0 0Z" fill="#acb1d6"></path><path d="M0 368L295 368L295 476L591 476L591 368L886 368L886 476L1182 476L1182 476L1477 476L1477 411L1772 411L1772 433L2068 433L2068 498L2363 498L2363 433L2658 433L2658 347L2954 347L2954 606L3249 606L3249 563L3545 563L3545 476L3840 476L3840 433L3840 172L3840 301L3545 301L3545 323L3249 323L3249 323L2954 323L2954 172L2658 172L2658 215L2363 215L2363 345L2068 345L2068 237L1772 237L1772 280L1477 280L1477 345L1182 345L1182 345L886 345L886 172L591 172L591 193L295 193L295 150L0 150Z" fill="#a5acd3"></path><path d="M0 541L295 541L295 735L591 735L591 584L886 584L886 714L1182 714L1182 671L1477 671L1477 606L1772 606L1772 671L2068 671L2068 714L2363 714L2363 541L2658 541L2658 476L2954 476L2954 779L3249 779L3249 671L3545 671L3545 627L3840 627L3840 584L3840 431L3840 474L3545 474L3545 561L3249 561L3249 604L2954 604L2954 345L2658 345L2658 431L2363 431L2363 496L2068 496L2068 431L1772 431L1772 409L1477 409L1477 474L1182 474L1182 474L886 474L886 366L591 366L591 474L295 474L295 366L0 366Z" fill="#9fa7d0"></path><path d="M0 930L295 930L295 973L591 973L591 995L886 995L886 951L1182 951L1182 1016L1477 1016L1477 995L1772 995L1772 930L2068 930L2068 1016L2363 1016L2363 843L2658 843L2658 714L2954 714L2954 951L3249 951L3249 1059L3545 1059L3545 887L3840 887L3840 951L3840 582L3840 625L3545 625L3545 669L3249 669L3249 777L2954 777L2954 474L2658 474L2658 539L2363 539L2363 712L2068 712L2068 669L1772 669L1772 604L1477 604L1477 669L1182 669L1182 712L886 712L886 582L591 582L591 733L295 733L295 539L0 539Z" fill="#98a2cd"></path><path d="M0 1103L295 1103L295 1081L591 1081L591 1189L886 1189L886 1081L1182 1081L1182 1189L1477 1189L1477 1211L1772 1211L1772 1081L2068 1081L2068 1232L2363 1232L2363 1016L2658 1016L2658 822L2954 822L2954 1124L3249 1124L3249 1232L3545 1232L3545 1038L3840 1038L3840 1146L3840 949L3840 885L3545 885L3545 1057L3249 1057L3249 949L2954 949L2954 712L2658 712L2658 841L2363 841L2363 1014L2068 1014L2068 928L1772 928L1772 993L1477 993L1477 1014L1182 1014L1182 949L886 949L886 993L591 993L591 971L295 971L295 928L0 928Z" fill="#919dca"></path><path d="M0 1491L295 1491L295 1470L591 1470L591 1794L886 1794L886 1621L1182 1621L1182 1794L1477 1794L1477 1751L1772 1751L1772 1794L2068 1794L2068 1556L2363 1556L2363 1470L2658 1470L2658 1535L2954 1535L2954 1859L3249 1859L3249 1880L3545 1880L3545 1794L3840 1794L3840 1643L3840 1144L3840 1036L3545 1036L3545 1230L3249 1230L3249 1122L2954 1122L2954 820L2658 820L2658 1014L2363 1014L2363 1230L2068 1230L2068 1079L1772 1079L1772 1209L1477 1209L1477 1187L1182 1187L1182 1079L886 1079L886 1187L591 1187L591 1079L295 1079L295 1101L0 1101Z" fill="#8a99c7"></path><path d="M0 2161L295 2161L295 2161L591 2161L591 2161L886 2161L886 2161L1182 2161L1182 2161L1477 2161L1477 2161L1772 2161L1772 2161L2068 2161L2068 2161L2363 2161L2363 2161L2658 2161L2658 2161L2954 2161L2954 2161L3249 2161L3249 2161L3545 2161L3545 2161L3840 2161L3840 2161L3840 1641L3840 1792L3545 1792L3545 1878L3249 1878L3249 1857L2954 1857L2954 1533L2658 1533L2658 1468L2363 1468L2363 1554L2068 1554L2068 1792L1772 1792L1772 1749L1477 1749L1477 1792L1182 1792L1182 1619L886 1619L886 1792L591 1792L591 1468L295 1468L295 1489L0 1489Z" fill="#8294c4"></path></svg>